<?xml version="1.0" standalone="no"?>
<!DOCTYPE svg PUBLIC "-//W3C//DTD SVG 20010904//EN"
 "http://www.w3.org/TR/2001/REC-SVG-20010904/DTD/svg10.dtd">
<svg version="1.0" xmlns="http://www.w3.org/2000/svg"
 width="3200.000000pt" height="3200.000000pt" viewBox="0 0 3200.000000 3200.000000"
 preserveAspectRatio="xMidYMid meet">
<metadata>
Created by potrace 1.11, written by Peter Selinger 2001-2013
</metadata>
<g transform="translate(0.000000,3200.000000) scale(0.100000,-0.100000)"
fill="#000000" stroke="none">
<path d="M13 19603 c0 -7 5 -9 11 -6 6 4 5 0 -1 -8 -10 -12 -10 -18 0 -29 7
-7 7 -10 1 -7 -8 5 -11 -11 -10 -48 0 -30 5 -55 9 -55 5 0 5 -6 0 -12 -11 -18
-10 -78 2 -78 5 0 4 -4 -3 -8 -12 -8 -12 -45 1 -58 4 -4 7 -12 7 -18 0 -6 -5
-4 -10 4 -8 11 -9 9 -8 -12 1 -16 7 -28 13 -28 5 0 4 -4 -3 -8 -12 -8 -12 -45
1 -58 4 -4 7 -12 7 -18 0 -6 -5 -4 -10 4 -8 11 -9 9 -8 -12 1 -16 7 -28 13
-28 5 0 4 -4 -3 -8 -12 -8 -12 -45 1 -58 4 -4 7 -12 7 -18 0 -6 -5 -4 -10 4
-8 11 -9 9 -8 -12 1 -16 7 -28 13 -28 5 0 4 -4 -3 -8 -12 -8 -12 -45 1 -58 4
-4 7 -12 7 -18 0 -6 -5 -4 -10 4 -8 11 -9 9 -8 -12 1 -16 7 -28 13 -28 5 0 4
-4 -3 -8 -12 -8 -12 -45 1 -58 4 -4 7 -12 7 -18 0 -6 -5 -4 -10 4 -8 11 -9 9
-8 -12 1 -16 7 -28 13 -28 5 0 4 -4 -3 -8 -12 -8 -12 -45 1 -58 4 -4 7 -12 7
-18 0 -6 -5 -4 -10 4 -8 11 -9 9 -8 -12 1 -16 7 -28 13 -28 5 0 4 -4 -3 -8
-12 -8 -12 -45 1 -58 4 -4 7 -12 7 -18 0 -6 -5 -4 -10 4 -8 11 -9 9 -8 -12 1
-16 7 -28 13 -28 5 0 4 -4 -3 -8 -12 -8 -12 -45 1 -58 4 -4 7 -12 7 -18 0 -6
-5 -4 -10 4 -8 11 -9 9 -8 -12 1 -16 7 -28 13 -28 5 0 4 -4 -3 -8 -12 -8 -12
-45 1 -58 4 -4 7 -12 7 -18 0 -6 -5 -4 -10 4 -8 11 -9 9 -8 -12 1 -16 7 -28
13 -28 5 0 4 -4 -3 -8 -12 -8 -12 -45 1 -58 4 -4 7 -12 7 -18 0 -6 -5 -4 -10
4 -8 11 -9 9 -8 -12 1 -16 7 -28 13 -28 5 0 4 -4 -3 -8 -12 -8 -12 -45 1 -58
4 -4 7 -12 7 -18 0 -6 -5 -4 -10 4 -8 11 -9 9 -8 -12 1 -16 7 -28 13 -28 5 0
4 -4 -3 -8 -12 -8 -12 -45 1 -58 4 -4 7 -12 7 -18 0 -6 -5 -4 -10 4 -8 11 -9
9 -8 -12 1 -16 7 -28 13 -28 5 0 4 -4 -3 -8 -12 -8 -12 -45 1 -58 4 -4 7 -12
7 -18 0 -6 -5 -4 -10 4 -8 11 -9 9 -8 -12 1 -16 7 -28 13 -28 5 0 4 -4 -3 -8
-12 -8 -12 -45 1 -58 4 -4 7 -12 7 -18 0 -6 -5 -4 -10 4 -8 11 -9 9 -8 -12 1
-16 7 -28 13 -28 5 0 4 -4 -3 -8 -12 -8 -12 -45 1 -58 4 -4 7 -12 7 -18 0 -6
-5 -4 -10 4 -8 11 -9 9 -8 -12 1 -16 7 -28 13 -28 5 0 4 -4 -3 -8 -12 -8 -12
-45 1 -58 4 -4 7 -12 7 -18 0 -6 -5 -4 -10 4 -8 11 -9 9 -8 -12 1 -16 7 -28
13 -28 5 0 4 -4 -3 -8 -12 -8 -12 -45 1 -58 4 -4 7 -12 7 -18 0 -6 -5 -4 -10
4 -8 11 -9 9 -8 -12 1 -16 7 -28 13 -28 5 0 4 -4 -3 -8 -12 -8 -12 -45 1 -58
4 -4 7 -12 7 -18 0 -6 -5 -4 -10 4 -8 11 -9 9 -8 -12 1 -16 7 -28 13 -28 5 0
4 -4 -3 -8 -12 -8 -12 -45 1 -58 4 -4 7 -12 7 -18 0 -6 -5 -4 -10 4 -8 11 -9
9 -8 -12 1 -16 7 -28 13 -28 5 0 4 -4 -3 -8 -12 -8 -12 -45 1 -58 4 -4 7 -12
7 -18 0 -6 -5 -4 -10 4 -8 11 -9 9 -8 -12 1 -16 7 -28 13 -28 5 0 4 -4 -3 -8
-12 -8 -12 -45 1 -58 4 -4 7 -12 7 -18 0 -6 -5 -4 -10 4 -8 11 -9 9 -8 -12 1
-16 7 -28 13 -28 5 0 4 -4 -3 -8 -12 -8 -12 -45 1 -58 4 -4 7 -12 7 -18 0 -6
-5 -4 -10 4 -8 11 -9 9 -8 -12 1 -16 7 -28 13 -28 5 0 4 -4 -3 -8 -12 -8 -12
-45 1 -58 4 -4 7 -12 7 -18 0 -6 -5 -4 -10 4 -8 11 -9 9 -8 -12 1 -16 7 -28
13 -28 5 0 4 -4 -3 -8 -12 -8 -12 -45 1 -58 4 -4 7 -12 7 -18 0 -6 -5 -4 -10
4 -8 11 -9 9 -8 -12 1 -16 7 -28 13 -28 5 0 4 -4 -3 -8 -12 -8 -12 -45 1 -58
4 -4 7 -12 7 -18 0 -6 -5 -4 -10 4 -8 11 -9 9 -8 -12 1 -16 7 -28 13 -28 5 0
4 -4 -3 -8 -12 -8 -12 -45 1 -58 4 -4 7 -12 7 -18 0 -6 -5 -4 -10 4 -8 11 -9
9 -8 -12 1 -16 7 -28 13 -28 5 0 4 -4 -3 -8 -12 -8 -12 -45 1 -58 4 -4 7 -12
7 -18 0 -6 -5 -4 -10 4 -8 11 -9 9 -8 -12 1 -16 7 -28 13 -28 5 0 4 -4 -3 -8
-12 -8 -12 -45 1 -58 4 -4 7 -12 7 -18 0 -6 -5 -4 -10 4 -8 11 -9 9 -8 -12 1
-16 7 -28 13 -28 5 0 4 -4 -3 -8 -12 -8 -12 -45 1 -58 4 -4 7 -12 7 -18 0 -6
-5 -4 -10 4 -8 11 -9 9 -8 -12 1 -16 7 -28 13 -28 5 0 4 -4 -3 -8 -12 -8 -12
-45 1 -58 4 -4 7 -12 7 -18 0 -6 -5 -4 -10 4 -8 11 -9 9 -8 -12 1 -16 7 -28
13 -28 5 0 4 -4 -3 -8 -12 -8 -12 -45 1 -58 4 -4 7 -12 7 -18 0 -6 -5 -4 -10
4 -8 11 -9 9 -8 -12 1 -16 7 -28 13 -28 5 0 4 -4 -3 -8 -12 -8 -12 -45 1 -58
4 -4 7 -12 7 -18 0 -6 -5 -4 -10 4 -8 11 -9 9 -8 -12 1 -16 7 -28 13 -28 5 0
4 -4 -3 -8 -12 -8 -12 -45 1 -58 4 -4 7 -12 7 -18 0 -6 -5 -4 -10 4 -8 11 -9
9 -8 -12 1 -16 7 -28 13 -28 5 0 4 -4 -3 -8 -12 -8 -12 -45 1 -58 4 -4 7 -12
7 -18 0 -6 -5 -4 -10 4 -8 11 -9 9 -8 -12 1 -16 7 -28 13 -28 5 0 4 -4 -3 -8
-12 -8 -12 -45 1 -58 4 -4 7 -12 7 -18 0 -6 -5 -4 -10 4 -8 11 -9 9 -8 -12 1
-16 7 -28 13 -28 5 0 4 -4 -3 -8 -12 -8 -12 -45 1 -58 4 -4 7 -12 7 -18 0 -6
-5 -4 -10 4 -8 11 -9 9 -8 -12 1 -16 7 -28 13 -28 5 0 4 -4 -3 -8 -12 -8 -12
-45 1 -58 4 -4 7 -12 7 -18 0 -6 -5 -4 -10 4 -8 11 -9 9 -8 -12 1 -16 7 -28
13 -28 5 0 4 -4 -3 -8 -12 -8 -12 -45 1 -58 4 -4 7 -12 7 -18 0 -6 -5 -4 -10
4 -8 11 -9 9 -8 -12 1 -16 7 -28 13 -28 5 0 4 -4 -3 -8 -12 -8 -12 -45 1 -58
4 -4 7 -12 7 -18 0 -6 -5 -4 -10 4 -8 11 -9 9 -8 -12 1 -16 7 -28 13 -28 5 0
4 -4 -3 -8 -12 -8 -12 -45 1 -58 4 -4 7 -12 7 -18 0 -6 -5 -4 -10 4 -8 11 -9
9 -8 -12 1 -16 7 -28 13 -28 5 0 4 -4 -3 -8 -12 -8 -12 -45 1 -58 4 -4 7 -12
7 -18 0 -6 -5 -4 -10 4 -8 11 -9 9 -8 -12 1 -16 7 -28 13 -28 5 0 4 -4 -3 -8
-12 -8 -12 -45 1 -58 4 -4 7 -12 7 -18 0 -6 -5 -4 -10 4 -8 11 -9 9 -8 -12 1
-16 7 -28 13 -28 5 0 4 -4 -3 -8 -12 -8 -12 -45 1 -58 4 -4 7 -12 7 -18 0 -6
-5 -4 -10 4 -8 11 -9 9 -8 -12 1 -16 7 -28 13 -28 5 0 4 -4 -3 -8 -12 -8 -12
-45 1 -58 4 -4 7 -12 7 -18 0 -6 -5 -4 -10 4 -8 11 -9 9 -8 -12 1 -16 7 -28
13 -28 5 0 4 -4 -3 -8 -12 -8 -12 -45 1 -58 4 -4 7 -12 7 -18 0 -6 -5 -4 -10
4 -8 11 -9 9 -8 -12 1 -16 7 -28 13 -28 5 0 4 -4 -3 -8 -12 -8 -12 -45 1 -58
4 -4 7 -12 7 -18 0 -6 -5 -4 -10 4 -8 11 -9 9 -8 -12 1 -16 7 -28 13 -28 5 0
4 -4 -3 -8 -12 -8 -12 -45 1 -58 4 -4 7 -12 7 -18 0 -6 -5 -4 -10 4 -8 11 -9
9 -8 -12 1 -16 7 -28 13 -28 5 0 4 -4 -3 -8 -12 -8 -12 -45 1 -58 4 -4 7 -12
7 -18 0 -6 -5 -4 -10 4 -8 11 -9 9 -8 -12 1 -16 7 -28 13 -28 5 0 4 -4 -3 -8
-12 -8 -12 -45 1 -58 4 -4 7 -12 7 -18 0 -6 -5 -4 -10 4 -8 11 -9 9 -8 -12 1
-16 7 -28 13 -28 5 0 4 -4 -3 -8 -12 -8 -12 -45 1 -58 4 -4 7 -12 7 -18 0 -6
-5 -4 -10 4 -8 11 -9 9 -8 -12 1 -16 7 -28 13 -28 5 0 4 -4 -3 -8 -12 -8 -12
-45 1 -58 4 -4 7 -12 7 -18 0 -6 -5 -4 -10 4 -8 11 -9 9 -8 -12 1 -16 7 -28
13 -28 5 0 4 -4 -3 -8 -12 -8 -12 -45 1 -58 4 -4 7 -12 7 -18 0 -6 -5 -4 -10
4 -8 11 -9 9 -8 -12 1 -16 7 -28 13 -28 5 0 4 -4 -3 -8 -12 -8 -12 -45 1 -58
4 -4 7 -12 7 -18 0 -6 -5 -4 -10 4 -8 11 -9 9 -8 -12 1 -16 7 -28 13 -28 5 0
4 -4 -3 -8 -12 -8 -12 -45 1 -58 4 -4 7 -12 7 -18 0 -6 -5 -4 -10 4 -8 11 -9
9 -8 -12 1 -16 7 -28 13 -28 5 0 4 -4 -3 -8 -12 -8 -12 -45 1 -58 4 -4 7 -12
7 -18 0 -6 -5 -4 -10 4 -8 11 -9 9 -8 -12 1 -16 7 -28 13 -28 5 0 4 -4 -3 -8
-12 -8 -12 -45 1 -58 4 -4 7 -12 7 -18 0 -6 -5 -4 -10 4 -8 11 -9 9 -8 -12 1
-16 7 -28 13 -28 5 0 4 -4 -3 -8 -12 -8 -12 -45 1 -58 4 -4 7 -12 7 -18 0 -6
-5 -4 -10 4 -8 11 -9 9 -8 -12 1 -16 7 -28 13 -28 5 0 4 -4 -3 -8 -12 -8 -12
-45 1 -58 4 -4 7 -12 7 -18 0 -6 -5 -4 -10 4 -6 10 -9 4 -7 -22 1 -20 5 -34
10 -31 4 2 7 0 7 -4 0 -5 11 -10 26 -11 17 -1 23 2 18 10 -5 7 -3 8 7 2 20
-12 38 -14 45 -3 3 5 11 6 17 2 18 -12 147 -11 147 2 0 7 3 7 8 0 10 -14 104
-16 95 -2 -4 6 -1 7 8 1 19 -12 33 -12 41 1 5 7 8 6 8 -1 0 -12 217 -13 237
-1 6 4 14 3 17 -2 7 -11 55 -11 62 0 3 5 11 9 17 9 7 0 6 -4 -3 -10 -11 -8 -5
-10 23 -8 20 1 37 7 37 13 0 7 3 7 8 0 8 -12 145 -18 138 -6 -3 4 1 8 9 8 8 0
12 -4 9 -9 -6 -9 25 -6 42 5 6 3 14 3 18 -1 13 -12 176 -10 176 2 0 8 3 8 8 0
10 -14 193 -14 185 0 -4 6 1 5 11 -3 15 -13 19 -13 27 0 5 8 9 9 9 3 0 -14 33
-14 42 0 6 8 8 8 8 0 0 -12 98 -13 117 -1 6 4 14 3 17 -2 7 -11 55 -11 62 0 3
5 11 9 17 9 7 0 6 -4 -3 -10 -11 -8 -5 -10 23 -8 20 1 37 7 37 13 0 7 3 7 8
-1 9 -13 194 -15 185 -1 -4 6 -1 7 8 1 20 -12 38 -14 45 -3 3 5 11 6 17 2 18
-12 257 -11 250 1 -4 5 -1 6 8 0 21 -13 39 -14 39 -1 0 8 3 9 8 1 8 -11 224
-15 217 -4 -2 4 2 7 10 7 8 0 12 -4 9 -9 -6 -9 25 -6 42 5 6 3 14 3 18 -1 13
-12 176 -10 176 2 0 8 2 8 8 0 9 -14 222 -14 222 1 0 6 3 7 8 0 11 -16 34 -17
43 -3 5 7 9 8 9 3 0 -6 23 -11 51 -13 27 -1 48 2 45 6 -3 5 1 9 9 9 8 0 12 -4
9 -9 -6 -9 25 -6 42 5 6 3 14 3 18 -1 13 -12 176 -10 176 2 0 8 3 8 8 0 10
-14 193 -14 185 0 -4 6 1 5 11 -3 15 -13 19 -13 27 0 5 8 9 9 9 4 0 -15 40
-16 40 -2 0 8 3 8 8 2 9 -14 154 -16 145 -2 -4 6 -1 7 8 1 20 -12 38 -14 45
-3 3 5 11 6 17 2 19 -13 257 -11 249 2 -3 5 2 3 13 -5 21 -17 24 -17 36 2 5 7
9 8 9 2 0 -12 217 -13 237 -1 6 4 14 3 17 -2 7 -11 55 -11 62 0 3 5 11 9 17 9
7 0 6 -4 -3 -10 -11 -8 -5 -10 23 -8 20 1 37 7 37 13 0 7 3 7 8 0 8 -12 145
-18 138 -6 -3 4 1 8 9 8 8 0 12 -4 9 -9 -6 -9 25 -6 42 5 6 3 14 3 18 -1 13
-12 176 -10 176 2 0 8 3 8 8 0 10 -14 193 -14 185 0 -4 6 1 5 11 -3 15 -13 19
-13 27 0 5 8 9 9 9 3 0 -14 33 -14 42 0 6 8 8 8 8 0 0 -12 98 -13 117 -1 6 4
14 3 17 -2 7 -11 55 -11 62 0 3 5 11 9 17 9 7 0 6 -4 -3 -10 -11 -8 -5 -10 23
-8 20 1 37 7 37 13 0 7 3 7 8 -1 9 -13 194 -15 185 -1 -4 6 -1 7 8 1 20 -12
38 -14 45 -3 3 5 11 6 17 2 18 -12 257 -11 250 1 -4 5 -1 6 8 0 21 -13 39 -14
39 -1 0 8 3 9 8 1 8 -11 224 -15 217 -4 -2 4 2 7 10 7 8 0 12 -4 9 -9 -6 -9
25 -6 42 5 6 3 14 3 18 -1 13 -12 176 -10 176 2 0 8 2 8 8 0 9 -14 222 -14
222 1 0 6 3 7 8 0 11 -16 34 -17 43 -3 5 7 9 8 9 3 0 -6 23 -11 51 -13 27 -1
48 2 45 6 -3 5 1 9 9 9 8 0 12 -4 9 -9 -6 -9 25 -6 42 5 6 3 14 3 18 -1 13
-12 176 -10 176 2 0 8 3 8 8 0 10 -14 193 -14 185 0 -4 6 1 5 11 -3 15 -13 19
-13 27 0 5 8 9 9 9 4 0 -15 40 -16 40 -2 0 8 3 8 8 2 9 -14 154 -16 145 -2 -4
6 -1 7 8 1 20 -12 38 -14 45 -3 3 5 11 6 17 2 18 -12 257 -11 250 1 -4 5 -1 6
8 0 19 -12 33 -12 41 1 5 7 8 6 8 -1 0 -12 217 -13 237 -1 6 4 14 3 17 -2 7
-11 55 -11 62 0 3 5 11 9 17 9 7 0 6 -4 -3 -10 -11 -8 -5 -10 23 -8 20 1 37 7
37 13 0 7 3 7 8 0 8 -12 145 -18 138 -6 -3 4 1 8 9 8 8 0 12 -4 9 -9 -6 -9 25
-6 42 5 6 3 14 3 18 -1 13 -12 176 -10 176 2 0 8 3 8 8 0 10 -14 193 -14 185
0 -4 6 1 5 11 -3 15 -13 19 -13 27 0 5 8 9 9 9 3 0 -14 33 -14 42 0 6 8 8 8 8
0 0 -12 98 -13 117 -1 6 4 14 3 17 -2 7 -11 55 -11 62 0 3 5 11 9 17 9 7 0 6
-4 -3 -10 -11 -8 -5 -10 23 -8 20 1 37 7 37 13 0 7 3 7 8 -1 9 -13 194 -15
185 -1 -4 6 -1 7 8 1 20 -12 38 -14 45 -3 3 5 11 6 17 2 18 -12 257 -11 250 1
-4 5 -1 6 8 0 21 -13 39 -14 39 -1 0 8 3 9 8 1 8 -11 224 -15 217 -4 -2 4 2 7
10 7 8 0 12 -4 9 -9 -6 -9 25 -6 42 5 6 3 14 3 18 -1 13 -12 176 -10 176 2 0
8 2 8 8 0 9 -14 222 -14 222 1 0 6 3 7 8 0 11 -16 34 -17 43 -3 5 7 9 8 9 3 0
-6 23 -11 51 -13 27 -1 48 2 45 6 -3 5 1 9 9 9 8 0 12 -4 9 -9 -6 -9 25 -6 42
5 6 3 14 3 18 -1 13 -12 176 -10 176 2 0 8 3 8 8 0 10 -14 193 -14 185 0 -4 6
1 5 11 -3 15 -13 19 -13 27 0 5 8 9 9 9 4 0 -15 40 -16 40 -2 0 8 3 8 8 2 9
-14 154 -16 145 -2 -4 6 -1 7 8 1 20 -12 38 -14 45 -3 3 5 11 6 17 2 18 -12
257 -11 250 1 -4 5 -1 6 8 0 19 -12 33 -12 41 1 5 7 8 6 8 -1 0 -12 217 -13
237 -1 6 4 14 3 17 -2 7 -11 55 -11 62 0 3 5 11 9 17 9 7 0 6 -4 -3 -10 -11
-8 -5 -10 23 -8 20 1 37 7 37 13 0 7 3 7 8 0 8 -12 145 -18 138 -6 -3 4 1 8 9
8 8 0 12 -4 9 -9 -6 -9 25 -6 42 5 6 3 14 3 18 -1 13 -12 176 -10 176 2 0 8 3
8 8 0 10 -14 193 -14 185 0 -4 6 1 5 11 -3 15 -13 19 -13 27 0 5 8 9 9 9 3 0
-14 33 -14 42 0 6 8 8 8 8 0 0 -12 98 -13 117 -1 6 4 14 3 17 -2 7 -11 55 -11
62 0 3 5 11 9 17 9 7 0 6 -4 -3 -10 -11 -8 -5 -10 23 -8 20 1 37 7 37 13 0 7
3 7 8 -1 9 -13 194 -15 185 -1 -4 6 -1 7 8 1 20 -12 38 -14 45 -3 3 5 11 6 17
2 18 -12 257 -11 250 1 -4 5 -1 6 8 0 21 -13 39 -14 39 -1 0 8 3 9 8 1 8 -11
224 -15 217 -4 -2 4 2 7 10 7 8 0 12 -4 9 -9 -6 -9 25 -6 42 5 6 3 14 3 18 -1
13 -12 176 -10 176 2 0 8 2 8 8 0 9 -14 222 -14 222 1 0 6 3 7 8 0 11 -16 34
-17 43 -3 5 7 9 8 9 3 0 -6 23 -11 51 -13 27 -1 48 2 45 6 -3 5 1 9 9 9 8 0
12 -4 9 -9 -6 -9 25 -6 42 5 6 3 14 3 18 -1 13 -12 176 -10 176 2 0 8 3 8 8 0
10 -14 193 -14 185 0 -4 6 1 5 11 -3 15 -13 19 -13 27 0 5 8 9 9 9 4 0 -15 40
-16 40 -2 0 8 3 8 8 2 9 -14 154 -16 145 -2 -4 6 -1 7 8 1 20 -12 38 -14 45
-3 3 5 11 6 17 2 19 -13 257 -11 249 2 -3 5 2 3 13 -5 21 -17 24 -17 36 2 5 7
9 8 9 2 0 -12 217 -13 237 -1 6 4 14 3 17 -2 7 -11 55 -11 62 0 3 5 11 9 17 9
7 0 6 -4 -3 -10 -11 -8 -5 -10 23 -8 20 1 37 7 37 13 0 7 3 7 8 0 8 -12 145
-18 138 -6 -3 4 1 8 9 8 8 0 12 -4 9 -9 -6 -9 25 -6 42 5 6 3 14 3 18 -1 13
-12 176 -10 176 2 0 8 3 8 8 0 10 -14 193 -14 185 0 -4 6 1 5 11 -3 15 -13 19
-13 27 0 5 8 9 9 9 3 0 -14 33 -14 42 0 6 8 8 8 8 0 0 -12 98 -13 117 -1 6 4
14 3 17 -2 7 -11 55 -11 62 0 3 5 11 9 17 9 7 0 6 -4 -3 -10 -11 -8 -5 -10 23
-8 20 1 37 7 37 13 0 7 3 7 8 -1 9 -13 194 -15 185 -1 -4 6 -1 7 8 1 20 -12
38 -14 45 -3 3 5 11 6 17 2 18 -12 257 -11 250 1 -4 5 -1 6 8 0 21 -13 39 -14
39 -1 0 8 3 9 8 1 8 -11 224 -15 217 -4 -2 4 2 7 10 7 8 0 12 -4 9 -9 -6 -9
25 -6 42 5 6 3 14 3 18 -1 13 -12 176 -10 176 2 0 8 2 8 8 0 9 -14 222 -14
222 1 0 6 3 7 8 0 11 -16 34 -17 43 -3 5 7 9 8 9 3 0 -6 23 -11 51 -13 27 -1
48 2 45 6 -3 5 1 9 9 9 8 0 12 -4 9 -9 -6 -9 25 -6 42 5 6 3 14 3 18 -1 13
-12 176 -10 176 2 0 8 3 8 8 0 10 -14 193 -14 185 0 -4 6 1 5 11 -3 15 -13 19
-13 27 0 5 8 9 9 9 4 0 -15 40 -16 40 -2 0 8 3 8 8 2 9 -14 154 -16 145 -2 -4
6 -1 7 8 1 20 -12 38 -14 45 -3 3 5 11 6 17 2 19 -13 257 -11 249 2 -3 5 1 5
9 -2 20 -16 31 -17 40 -1 5 7 9 8 9 2 0 -12 217 -13 237 -1 6 4 14 3 17 -2 7
-11 55 -11 62 0 3 5 11 9 17 9 7 0 6 -4 -3 -10 -11 -8 -5 -10 23 -8 20 1 37 7
37 13 0 7 3 7 8 0 8 -12 145 -18 138 -6 -3 4 1 8 9 8 8 0 12 -4 9 -9 -6 -9 25
-6 42 5 6 3 14 3 18 -1 13 -12 176 -10 176 2 0 8 3 8 8 0 10 -14 193 -14 185
0 -4 6 1 5 11 -3 15 -13 19 -13 27 0 5 8 9 9 9 3 0 -14 33 -14 42 0 6 8 8 8 8
0 0 -12 98 -13 117 -1 6 4 14 3 17 -2 7 -11 55 -11 62 0 3 5 11 9 17 9 7 0 6
-4 -3 -10 -11 -8 -5 -10 23 -8 20 1 37 7 37 13 0 7 3 7 8 -1 9 -13 194 -15
185 -1 -4 6 -1 7 8 1 20 -12 38 -14 45 -3 3 5 11 6 17 2 18 -12 257 -11 250 1
-4 5 -1 6 8 0 21 -13 39 -14 39 -1 0 8 3 9 8 1 8 -11 224 -15 217 -4 -2 4 2 7
10 7 8 0 12 -4 9 -9 -6 -9 25 -6 42 5 6 3 14 3 18 -1 13 -12 176 -10 176 2 0
8 2 8 8 0 9 -14 222 -14 222 1 0 6 3 7 8 0 11 -16 34 -17 43 -3 5 7 9 8 9 3 0
-6 23 -11 51 -13 27 -1 48 2 45 6 -3 5 1 9 9 9 8 0 12 -4 9 -9 -6 -9 25 -6 42
5 6 3 14 3 18 -1 13 -12 176 -10 176 2 0 8 3 8 8 0 10 -14 193 -14 185 0 -4 6
1 5 11 -3 15 -13 19 -13 27 0 5 8 9 9 9 4 0 -15 40 -16 40 -2 0 8 3 8 8 2 9
-14 154 -16 145 -2 -4 6 -1 7 8 1 20 -12 38 -14 45 -3 3 5 11 6 17 2 18 -12
257 -11 250 1 -4 5 -1 6 8 0 19 -12 33 -12 41 1 5 7 8 6 8 -1 0 -12 217 -13
237 -1 6 4 14 3 17 -2 7 -11 55 -11 62 0 3 5 11 9 17 9 7 0 6 -4 -3 -10 -11
-8 -5 -10 23 -8 20 1 37 7 37 13 0 7 3 7 8 0 8 -12 145 -18 138 -6 -3 4 1 8 9
8 8 0 12 -4 9 -9 -6 -9 25 -6 42 5 6 3 14 3 18 -1 13 -12 176 -10 176 2 0 8 3
8 8 0 10 -14 193 -14 185 0 -4 6 1 5 11 -3 15 -13 19 -13 27 0 5 8 9 9 9 3 0
-14 33 -14 42 0 6 8 8 8 8 0 0 -12 98 -13 117 -1 6 4 14 3 17 -2 7 -11 55 -11
62 0 3 5 11 9 17 9 7 0 6 -4 -3 -10 -11 -8 -5 -10 23 -8 20 1 37 7 37 13 0 7
3 7 8 -1 9 -13 194 -15 185 -1 -4 6 -1 7 8 1 20 -12 38 -14 45 -3 3 5 11 6 17
2 18 -12 257 -11 250 1 -4 5 -1 6 8 0 21 -13 39 -14 39 -1 0 8 3 9 8 1 8 -11
224 -15 217 -4 -2 4 2 7 10 7 8 0 12 -4 9 -9 -6 -9 25 -6 42 5 6 3 14 3 18 -1
13 -12 176 -10 176 2 0 8 2 8 8 0 9 -14 222 -14 222 1 0 6 3 7 8 0 11 -16 34
-17 43 -3 5 7 9 8 9 3 0 -6 23 -11 51 -13 27 -1 48 2 45 6 -3 5 1 9 9 9 8 0
12 -4 9 -9 -6 -9 25 -6 42 5 6 3 14 3 18 -1 13 -12 176 -10 176 2 0 8 3 8 8 0
10 -14 193 -14 185 0 -4 6 1 5 11 -3 15 -13 19 -13 27 0 5 8 9 9 9 4 0 -15 40
-16 40 -2 0 8 3 8 8 2 9 -14 154 -16 145 -2 -4 6 -1 7 8 1 20 -12 38 -14 45
-3 3 5 11 6 17 2 18 -12 257 -11 250 1 -4 5 -1 6 8 0 19 -12 33 -12 41 1 5 7
8 6 8 -1 0 -12 217 -13 237 -1 6 4 14 3 17 -2 7 -11 55 -11 62 0 3 5 11 9 17
9 7 0 6 -4 -3 -10 -11 -8 -5 -10 23 -8 20 1 37 7 37 13 0 7 3 7 8 0 8 -12 145
-18 138 -6 -3 4 1 8 9 8 8 0 12 -4 9 -9 -6 -9 25 -6 42 5 6 3 14 3 18 -1 13
-12 176 -10 176 2 0 8 3 8 8 0 10 -14 193 -14 185 0 -4 6 1 5 11 -3 15 -13 19
-13 27 0 5 8 9 9 9 3 0 -14 33 -14 42 0 6 8 8 8 8 0 0 -12 98 -13 117 -1 6 4
14 3 17 -2 7 -11 55 -11 62 0 3 5 11 9 17 9 7 0 6 -4 -3 -10 -11 -8 -5 -10 23
-8 20 1 37 7 37 13 0 7 3 7 8 -1 9 -13 194 -15 185 -1 -4 6 -1 7 8 1 20 -12
38 -14 45 -3 3 5 11 6 17 2 18 -12 257 -11 250 1 -4 5 -1 6 8 0 21 -13 39 -14
39 -1 0 8 3 9 8 1 8 -11 224 -15 217 -4 -2 4 2 7 10 7 8 0 12 -4 9 -9 -6 -9
25 -6 42 5 6 3 14 3 18 -1 13 -12 176 -10 176 2 0 8 2 8 8 0 9 -14 222 -14
222 1 0 6 3 7 8 0 11 -16 34 -17 43 -3 5 7 9 8 9 3 0 -6 23 -11 51 -13 27 -1
48 2 45 6 -3 5 1 9 9 9 8 0 12 -4 9 -9 -6 -9 25 -6 42 5 6 3 14 3 18 -1 13
-12 176 -10 176 2 0 8 3 8 8 0 10 -14 193 -14 185 0 -4 6 1 5 11 -3 15 -13 19
-13 27 0 5 8 9 9 9 4 0 -15 40 -16 40 -2 0 8 3 8 8 2 9 -14 154 -16 145 -2 -4
6 -1 7 8 1 20 -12 38 -14 45 -3 3 5 11 6 17 2 18 -12 257 -11 250 1 -4 5 -1 6
8 0 19 -12 33 -12 41 1 5 7 8 6 8 -1 0 -12 217 -13 237 -1 6 4 14 3 17 -2 7
-11 55 -11 62 0 3 5 11 9 17 9 7 0 6 -4 -3 -10 -11 -8 -5 -10 23 -8 20 1 37 7
37 13 0 7 3 7 8 0 8 -12 145 -18 138 -6 -3 4 1 8 9 8 8 0 12 -4 9 -9 -6 -9 25
-6 42 5 6 3 14 3 18 -1 13 -12 176 -10 176 2 0 6 5 4 10 -4 8 -13 11 -13 22
-1 11 12 10 12 -2 6 -12 -7 -13 -6 -3 6 14 17 14 28 1 53 -7 13 -7 16 1 12 14
-9 14 0 0 26 -7 13 -7 18 0 14 11 -7 8 54 -4 75 -5 7 -4 10 3 5 12 -7 10 53
-3 75 -5 7 -4 10 3 5 12 -7 10 53 -3 75 -5 7 -4 10 2 6 5 -3 9 14 9 44 0 27
-5 49 -11 49 -7 0 -7 3 0 8 14 10 14 105 1 114 -8 5 -7 8 1 8 12 0 12 17 0 36
-3 6 -3 14 0 18 12 12 10 176 -1 176 -6 0 -5 4 2 9 18 11 19 15 5 33 -7 8 -10
18 -6 22 11 11 11 116 0 109 -6 -4 -7 -1 -1 8 12 20 12 101 0 118 -8 11 -8 13
2 7 7 -4 12 -1 12 9 0 10 -5 14 -12 9 -10 -6 -10 -4 0 7 15 16 16 33 0 23 -7
-5 -8 -3 -3 7 13 21 14 119 1 119 -6 0 -5 4 2 9 15 9 15 20 1 37 -5 6 -6 14
-2 18 11 11 11 116 0 109 -6 -4 -7 -1 -1 8 12 20 12 101 0 118 -8 11 -8 13 2
7 7 -4 12 -1 12 9 0 10 -5 14 -12 9 -10 -6 -10 -4 0 7 15 16 16 33 0 23 -7 -5
-8 -3 -3 7 13 21 14 119 1 119 -6 0 -5 4 2 9 15 9 15 20 1 37 -5 6 -6 14 -2
18 11 11 11 116 0 109 -6 -4 -7 -1 -1 8 12 20 12 101 0 118 -8 11 -8 13 2 7 7
-4 12 -1 12 9 0 10 -5 14 -12 9 -10 -6 -10 -4 0 7 15 16 16 33 0 23 -7 -5 -8
-3 -3 7 13 21 14 119 1 119 -6 0 -5 4 2 9 15 9 15 20 1 37 -5 6 -6 14 -2 18
11 11 11 116 0 109 -6 -4 -7 -1 -1 8 12 20 12 101 0 118 -8 11 -8 13 2 7 7 -4
12 -1 12 9 0 10 -5 14 -12 9 -10 -6 -10 -4 0 7 15 16 16 33 0 23 -7 -5 -8 -3
-3 7 13 21 14 119 1 119 -6 0 -5 4 2 9 15 9 15 20 1 37 -5 6 -6 14 -2 18 12
12 11 116 -1 109 -8 -5 -8 -3 0 8 12 17 12 58 0 78 -6 9 -5 12 2 7 12 -7 10
53 -3 75 -5 7 -4 10 3 5 12 -7 10 53 -3 75 -5 7 -4 10 3 5 12 -7 10 53 -3 75
-5 7 -4 10 3 5 12 -7 10 53 -3 75 -5 7 -4 10 3 5 12 -7 10 53 -3 75 -5 7 -4
10 3 5 12 -7 10 53 -3 75 -5 7 -4 10 3 5 12 -7 10 53 -3 75 -5 7 -4 10 3 5 12
-7 10 53 -3 75 -5 7 -4 10 3 5 12 -7 10 53 -3 75 -5 7 -4 10 3 5 12 -7 10 53
-3 75 -5 7 -4 10 3 5 12 -7 10 53 -3 75 -5 7 -4 10 3 5 12 -7 10 53 -3 75 -5
7 -4 10 3 5 12 -7 10 53 -3 75 -5 7 -4 10 3 5 12 -7 10 53 -3 75 -5 7 -4 10 3
5 12 -7 10 53 -3 75 -5 7 -4 10 2 6 5 -3 9 14 9 44 0 27 -5 49 -11 49 -7 0 -7
3 0 8 14 10 14 105 1 114 -8 5 -7 8 1 8 12 0 12 17 0 36 -3 6 -3 14 0 18 12
12 10 176 -1 176 -6 0 -5 4 2 9 18 11 19 15 5 33 -7 8 -10 18 -6 22 11 11 11
116 0 109 -6 -4 -7 -1 -1 8 12 20 12 101 0 118 -8 11 -8 13 2 7 7 -4 12 -1 12
9 0 10 -5 14 -12 9 -10 -6 -10 -4 0 7 15 16 16 33 0 23 -7 -5 -8 -3 -3 7 13
21 14 119 1 119 -6 0 -5 4 2 9 18 11 19 15 5 33 -7 8 -10 18 -6 22 11 11 11
116 0 109 -6 -4 -7 -1 -1 8 12 20 12 101 0 118 -8 11 -8 13 2 7 7 -4 12 -1 12
9 0 10 -5 14 -12 9 -10 -6 -10 -4 0 7 15 16 16 33 0 23 -7 -5 -8 -3 -3 7 13
21 14 119 1 119 -6 0 -5 4 2 9 15 9 15 20 1 37 -5 6 -6 14 -2 18 11 11 11 116
0 109 -6 -4 -7 -1 -1 8 12 20 12 101 0 118 -8 11 -8 13 2 7 7 -4 12 -1 12 9 0
10 -5 14 -12 9 -10 -6 -10 -4 0 7 15 16 16 33 0 23 -7 -5 -8 -3 -3 7 13 21 14
119 1 119 -6 0 -5 4 2 9 15 9 15 20 1 37 -5 6 -6 14 -2 18 11 11 11 116 0 109
-6 -4 -7 -1 -1 8 12 20 12 101 0 118 -8 11 -8 13 2 7 7 -4 12 -1 12 9 0 10 -5
14 -12 9 -10 -6 -10 -4 0 7 15 16 16 33 0 23 -7 -5 -8 -3 -3 7 13 21 14 119 1
119 -6 0 -5 4 2 9 15 9 15 20 1 37 -5 6 -6 14 -2 18 12 12 11 116 -1 109 -8
-5 -8 -3 0 8 12 17 12 58 0 78 -6 9 -5 12 2 7 12 -7 10 53 -3 75 -5 7 -4 10 3
5 12 -7 10 53 -3 75 -5 7 -4 10 3 5 12 -7 10 53 -3 75 -5 7 -4 10 2 6 12 -8
11 93 -2 113 -5 8 -4 11 2 7 7 -4 10 2 9 16 -1 19 -6 22 -41 22 -22 0 -46 -4
-54 -9 -9 -6 -12 -5 -8 1 4 6 -8 10 -28 10 -20 0 -32 -4 -28 -10 4 -6 1 -7 -8
-2 -20 13 -89 13 -89 1 0 -8 -3 -8 -8 -1 -8 12 -101 14 -119 2 -6 -4 -14 -3
-17 2 -7 11 -25 9 -45 -3 -10 -6 -12 -5 -7 2 4 7 1 12 -9 12 -9 0 -13 -5 -10
-10 3 -5 1 -10 -4 -10 -6 0 -11 5 -11 11 0 13 -49 9 -69 -6 -11 -7 -13 -7 -8
1 8 14 -70 13 -92 0 -10 -6 -12 -5 -7 2 10 16 -16 15 -33 0 -11 -10 -13 -10
-7 0 9 16 -6 16 -23 0 -10 -9 -12 -9 -7 -1 8 14 -91 12 -114 -2 -9 -5 -11 -4
-6 3 10 16 -26 15 -43 0 -11 -10 -13 -10 -7 0 9 16 -16 16 -33 0 -11 -10 -13
-10 -7 0 4 7 2 12 -6 12 -8 0 -20 -6 -27 -12 -11 -10 -13 -10 -7 0 9 16 -16
16 -33 0 -11 -10 -13 -10 -7 0 4 6 2 12 -3 12 -6 0 -11 -6 -11 -12 0 -9 -3 -9
-8 -3 -8 13 -101 13 -121 1 -10 -6 -12 -5 -7 2 10 16 -26 15 -43 0 -11 -10
-13 -10 -7 0 9 16 -16 16 -33 0 -11 -10 -13 -10 -7 0 4 6 2 12 -3 12 -6 0 -11
-6 -11 -12 0 -9 -2 -10 -8 -2 -8 13 -199 13 -219 1 -6 -4 -14 -3 -17 2 -7 11
-25 9 -45 -3 -10 -6 -12 -5 -7 2 4 7 1 12 -9 12 -10 0 -13 -5 -9 -12 6 -10 5
-10 -7 -1 -12 10 -18 10 -29 0 -8 -7 -11 -8 -7 -1 8 14 -120 13 -142 0 -9 -6
-12 -5 -8 1 7 12 -101 12 -120 0 -6 -4 -14 -3 -17 2 -7 11 -25 9 -45 -3 -10
-6 -12 -5 -7 2 10 16 -26 15 -43 0 -11 -10 -13 -10 -7 0 4 7 2 12 -6 12 -8 0
-20 -6 -27 -12 -11 -11 -12 -10 -6 0 8 16 -26 13 -37 -3 -5 -7 -8 -6 -8 1 0
12 -59 12 -79 0 -10 -6 -12 -5 -7 2 10 16 -26 16 -42 0 -8 -8 -12 -8 -12 -1 0
12 -197 12 -217 0 -6 -4 -14 -3 -17 2 -7 11 -25 9 -45 -3 -10 -6 -12 -5 -7 2
10 16 -26 15 -43 0 -11 -10 -13 -10 -7 0 9 16 -16 16 -33 0 -11 -10 -13 -10
-7 0 9 16 -6 16 -23 0 -10 -9 -12 -9 -7 -1 8 14 -91 12 -114 -2 -9 -5 -11 -4
-6 3 10 16 -26 15 -43 0 -11 -10 -13 -10 -7 0 9 16 -16 16 -33 0 -11 -10 -13
-10 -7 0 9 16 -16 16 -33 0 -11 -10 -13 -10 -7 0 4 7 2 12 -6 12 -8 0 -20 -6
-27 -12 -11 -10 -13 -10 -7 0 4 6 2 12 -3 12 -6 0 -11 -6 -11 -12 0 -9 -3 -9
-8 -3 -8 13 -101 13 -121 1 -10 -6 -12 -5 -7 2 10 16 -26 15 -43 0 -11 -10
-13 -10 -7 0 9 16 -16 16 -33 0 -11 -10 -13 -10 -7 0 4 6 2 12 -3 12 -6 0 -11
-6 -11 -12 0 -9 -2 -10 -8 -2 -8 13 -199 13 -219 1 -6 -4 -14 -3 -17 2 -7 11
-25 9 -45 -3 -10 -6 -12 -5 -7 2 4 7 1 12 -9 12 -10 0 -13 -5 -9 -12 6 -10 5
-10 -7 -1 -12 10 -18 10 -29 0 -8 -7 -11 -8 -7 -1 8 14 -120 13 -142 0 -9 -6
-12 -5 -8 1 7 12 -101 12 -120 0 -6 -4 -14 -3 -17 2 -7 11 -25 9 -45 -3 -10
-6 -12 -5 -7 2 10 16 -26 15 -43 0 -11 -10 -13 -10 -7 0 9 16 -16 16 -33 0
-11 -11 -12 -10 -6 0 8 16 -26 13 -37 -3 -5 -7 -8 -6 -8 1 0 12 -59 12 -79 0
-10 -6 -12 -5 -7 2 10 16 -26 16 -42 0 -8 -8 -12 -8 -12 -1 0 12 -197 12 -217
0 -6 -4 -14 -3 -17 2 -7 11 -25 9 -45 -3 -10 -6 -12 -5 -7 2 10 16 -26 15 -43
0 -11 -10 -13 -10 -7 0 9 16 -16 16 -33 0 -11 -10 -13 -10 -7 0 4 6 3 12 -1
12 -5 0 -15 -6 -22 -12 -10 -9 -12 -9 -7 -1 8 14 -91 12 -114 -2 -9 -5 -11 -4
-6 3 10 16 -26 15 -43 0 -11 -10 -13 -10 -7 0 4 7 2 12 -6 12 -8 0 -20 -6 -27
-12 -11 -10 -13 -10 -7 0 9 16 -16 16 -33 0 -11 -10 -13 -10 -7 0 4 7 2 12 -6
12 -8 0 -20 -6 -27 -12 -11 -10 -13 -10 -7 0 4 6 2 12 -3 12 -6 0 -11 -6 -11
-12 0 -9 -3 -9 -8 -3 -8 13 -101 13 -121 1 -10 -6 -12 -5 -7 2 10 16 -26 15
-43 0 -11 -10 -13 -10 -7 0 9 16 -16 16 -33 0 -11 -10 -13 -10 -7 0 4 6 2 12
-3 12 -6 0 -11 -6 -11 -12 0 -9 -2 -10 -8 -2 -8 13 -199 13 -219 1 -6 -4 -14
-3 -17 2 -7 11 -25 9 -45 -3 -10 -6 -12 -5 -7 2 4 7 1 12 -9 12 -10 0 -13 -5
-9 -12 6 -10 5 -10 -7 -1 -12 10 -18 10 -29 0 -8 -7 -11 -8 -7 -1 8 14 -120
13 -142 0 -9 -6 -12 -5 -8 1 7 12 -101 12 -120 0 -6 -4 -14 -3 -17 2 -7 11
-25 9 -45 -3 -10 -6 -12 -5 -7 2 10 16 -26 15 -43 0 -11 -10 -13 -10 -7 0 4 7
2 12 -6 12 -8 0 -20 -6 -27 -12 -11 -11 -12 -10 -6 0 8 16 -26 13 -37 -3 -5
-7 -8 -6 -8 1 0 12 -59 12 -79 0 -10 -6 -12 -5 -7 2 10 16 -26 16 -42 0 -8 -8
-12 -8 -12 -1 0 12 -197 12 -217 0 -6 -4 -14 -3 -17 2 -7 11 -25 9 -45 -3 -10
-6 -12 -5 -7 2 4 7 1 12 -9 12 -10 0 -13 -5 -9 -12 6 -10 5 -10 -7 -1 -12 10
-18 10 -29 0 -8 -7 -11 -8 -7 -1 8 14 -120 13 -142 0 -9 -6 -12 -5 -8 1 7 12
-101 12 -120 0 -6 -4 -14 -3 -17 2 -7 11 -25 9 -45 -3 -10 -6 -12 -5 -7 2 10
16 -26 15 -43 0 -11 -10 -13 -10 -7 0 9 16 -16 16 -33 0 -11 -11 -12 -10 -6 0
8 16 -26 13 -37 -3 -5 -7 -8 -6 -8 1 0 12 -59 12 -79 0 -10 -6 -12 -5 -7 3 9
13 -50 11 -73 -4 -9 -5 -12 -4 -8 2 8 13 -121 12 -142 -1 -9 -6 -12 -5 -8 1 7
12 -101 12 -120 0 -6 -4 -14 -3 -17 2 -7 11 -25 9 -45 -3 -10 -6 -12 -5 -7 2
10 16 -26 15 -43 0 -11 -10 -13 -10 -7 0 9 16 -16 16 -33 0 -11 -11 -12 -10
-6 0 8 16 -26 13 -37 -3 -5 -7 -8 -6 -8 1 0 12 -59 12 -79 0 -10 -6 -12 -5 -7
3 9 13 -50 11 -73 -4 -9 -5 -12 -4 -8 2 8 13 -121 12 -142 -1 -9 -6 -12 -5 -8
1 7 12 -101 12 -120 0 -6 -4 -14 -3 -17 2 -7 11 -25 9 -45 -3 -10 -6 -12 -5
-7 2 10 16 -26 15 -43 0 -11 -10 -13 -10 -7 0 9 16 -16 16 -33 0 -11 -11 -12
-10 -6 0 8 16 -26 13 -37 -3 -5 -7 -8 -6 -8 1 0 12 -59 12 -79 0 -10 -6 -12
-5 -7 3 9 13 -50 11 -73 -4 -9 -5 -12 -4 -8 2 8 13 -121 12 -142 -1 -9 -6 -12
-5 -8 1 7 12 -101 12 -120 0 -6 -4 -14 -3 -17 2 -7 11 -25 9 -45 -3 -10 -6
-12 -5 -7 2 10 16 -26 15 -43 0 -11 -10 -13 -10 -7 0 4 7 2 12 -6 12 -8 0 -20
-6 -27 -12 -11 -11 -12 -10 -6 0 8 16 -26 13 -37 -3 -5 -7 -8 -6 -8 1 0 12
-59 12 -79 0 -10 -6 -12 -5 -7 2 10 16 -26 16 -42 0 -8 -8 -12 -8 -12 -1 0 12
-197 12 -217 0 -6 -4 -14 -3 -17 2 -7 11 -25 9 -45 -3 -10 -6 -12 -5 -7 2 4 7
1 12 -9 12 -10 0 -13 -5 -9 -12 6 -10 5 -10 -7 -1 -12 10 -18 10 -29 0 -8 -7
-11 -8 -7 -1 8 14 -120 13 -142 0 -9 -6 -12 -5 -8 1 7 12 -101 12 -120 0 -6
-4 -14 -3 -17 2 -7 11 -25 9 -45 -3 -10 -6 -12 -5 -7 2 10 16 -26 15 -43 0
-11 -10 -13 -10 -7 0 9 16 -16 16 -33 0 -11 -11 -12 -10 -6 0 8 16 -26 13 -37
-3 -5 -7 -8 -6 -8 1 0 12 -59 12 -79 0 -10 -6 -12 -5 -7 2 10 16 -26 16 -42 0
-8 -8 -12 -8 -12 -1 0 12 -197 12 -217 0 -6 -4 -14 -3 -17 2 -7 11 -25 9 -45
-3 -10 -6 -12 -5 -7 2 10 16 -26 15 -43 0 -11 -10 -13 -10 -7 0 4 7 2 12 -6
12 -8 0 -20 -6 -27 -12 -11 -10 -13 -10 -7 0 9 16 -6 16 -23 0 -10 -9 -12 -9
-7 -1 8 14 -91 12 -114 -2 -9 -5 -11 -4 -6 3 10 16 -26 15 -43 0 -11 -10 -13
-10 -7 0 9 16 -16 16 -33 0 -11 -10 -13 -10 -7 0 4 7 2 12 -6 12 -8 0 -20 -6
-27 -12 -11 -10 -13 -10 -7 0 9 16 -16 16 -33 0 -11 -10 -13 -10 -7 0 4 6 2
12 -3 12 -6 0 -11 -6 -11 -12 0 -9 -3 -9 -8 -3 -8 13 -101 13 -121 1 -10 -6
-12 -5 -7 2 10 16 -26 15 -43 0 -11 -10 -13 -10 -7 0 9 16 -16 16 -33 0 -11
-10 -13 -10 -7 0 4 6 2 12 -3 12 -6 0 -11 -6 -11 -12 0 -9 -2 -10 -8 -2 -8 13
-199 13 -219 1 -6 -4 -14 -3 -17 2 -7 11 -25 9 -45 -3 -10 -6 -12 -5 -7 2 4 7
1 12 -9 12 -10 0 -13 -5 -9 -12 6 -10 5 -10 -7 -1 -12 10 -18 10 -29 0 -8 -7
-11 -8 -7 -1 8 14 -120 13 -142 0 -9 -6 -12 -5 -8 1 7 12 -101 12 -120 0 -6
-4 -14 -3 -17 2 -7 11 -25 9 -45 -3 -10 -6 -12 -5 -7 2 10 16 -26 15 -43 0
-11 -10 -13 -10 -7 0 9 16 -16 16 -33 0 -11 -11 -12 -10 -6 0 8 16 -26 13 -37
-3 -5 -7 -8 -6 -8 1 0 12 -59 12 -79 0 -10 -6 -12 -5 -7 2 10 16 -26 16 -42 0
-8 -8 -12 -8 -12 -1 0 12 -197 12 -217 0 -6 -4 -14 -3 -17 2 -7 11 -25 9 -45
-3 -10 -6 -12 -5 -7 2 10 16 -26 15 -43 0 -11 -10 -13 -10 -7 0 9 16 -16 16
-33 0 -11 -10 -13 -10 -7 0 9 16 -6 16 -23 0 -10 -9 -12 -9 -7 -1 8 14 -91 12
-114 -2 -9 -5 -11 -4 -6 3 10 16 -26 15 -43 0 -11 -10 -13 -10 -7 0 9 16 -16
16 -33 0 -11 -10 -13 -10 -7 0 9 16 -16 16 -33 0 -11 -10 -13 -10 -7 0 9 16
-16 16 -33 0 -11 -10 -13 -10 -7 0 4 6 2 12 -3 12 -6 0 -11 -6 -11 -12 0 -9
-3 -9 -8 -3 -8 13 -101 13 -121 1 -10 -6 -12 -5 -7 2 10 16 -26 15 -43 0 -11
-10 -13 -10 -7 0 9 16 -16 16 -33 0 -11 -10 -13 -10 -7 0 4 6 2 12 -3 12 -6 0
-11 -6 -11 -12 0 -9 -2 -10 -8 -2 -8 13 -199 13 -219 1 -6 -4 -14 -3 -17 2 -7
11 -25 9 -45 -3 -10 -6 -12 -5 -7 2 4 7 1 12 -9 12 -10 0 -13 -5 -9 -12 6 -10
5 -10 -7 -1 -12 10 -18 10 -29 0 -8 -7 -11 -8 -7 -1 8 14 -120 13 -142 0 -9
-6 -12 -5 -8 1 7 12 -101 12 -120 0 -6 -4 -14 -3 -17 2 -7 11 -25 9 -45 -3
-10 -6 -12 -5 -7 2 10 16 -26 15 -43 0 -11 -10 -13 -10 -7 0 9 16 -16 16 -33
0 -11 -11 -12 -10 -6 0 8 16 -26 13 -37 -3 -5 -7 -8 -6 -8 1 0 12 -59 12 -79
0 -10 -6 -12 -5 -7 2 10 16 -26 16 -42 0 -8 -8 -12 -8 -12 -1 0 12 -197 12
-217 0 -6 -4 -14 -3 -17 2 -7 11 -25 9 -45 -3 -10 -6 -12 -5 -7 2 4 7 1 12 -9
12 -10 0 -13 -5 -9 -12 6 -10 5 -10 -7 -1 -12 10 -18 10 -29 0 -8 -7 -11 -8
-7 -1 8 14 -120 13 -142 0 -9 -6 -12 -5 -8 1 7 12 -101 12 -120 0 -6 -4 -14
-3 -17 2 -7 11 -25 9 -45 -3 -10 -6 -12 -5 -7 2 10 16 -26 15 -43 0 -11 -10
-13 -10 -7 0 9 16 -16 16 -33 0 -11 -11 -12 -10 -6 0 8 16 -26 13 -37 -3 -5
-7 -8 -6 -8 1 0 12 -59 12 -79 0 -10 -6 -12 -5 -7 3 9 13 -50 11 -73 -4 -9 -5
-12 -4 -8 2 8 13 -121 12 -142 -1 -9 -6 -12 -5 -8 1 7 12 -101 12 -120 0 -6
-4 -14 -3 -17 2 -7 11 -25 9 -45 -3 -10 -6 -12 -5 -7 2 10 16 -26 15 -43 0
-11 -10 -13 -10 -7 0 9 16 -16 16 -33 0 -11 -11 -12 -10 -6 0 8 16 -26 13 -37
-3 -5 -7 -8 -6 -8 1 0 12 -59 12 -79 0 -10 -6 -12 -5 -7 3 9 13 -50 11 -73 -4
-9 -5 -12 -4 -8 2 8 13 -121 12 -142 -1 -9 -6 -12 -5 -8 1 7 12 -101 12 -120
0 -6 -4 -14 -3 -17 2 -7 11 -25 9 -45 -3 -10 -6 -12 -5 -7 2 10 16 -26 15 -43
0 -11 -10 -13 -10 -7 0 4 7 2 12 -6 12 -8 0 -20 -6 -27 -12 -11 -11 -12 -10
-6 0 8 16 -26 13 -37 -3 -5 -7 -8 -6 -8 1 0 12 -59 12 -79 0 -10 -6 -12 -5 -7
3 9 13 -50 11 -73 -4 -9 -5 -12 -4 -8 2 8 13 -121 12 -142 -1 -9 -6 -12 -5 -8
1 7 12 -101 12 -120 0 -6 -4 -14 -3 -17 2 -7 11 -25 9 -45 -3 -10 -6 -12 -5
-7 2 10 16 -26 15 -43 0 -11 -10 -13 -10 -7 0 9 16 -16 16 -33 0 -11 -11 -12
-10 -6 0 8 16 -26 13 -37 -3 -5 -7 -8 -6 -8 1 0 12 -59 12 -79 0 -10 -6 -12
-5 -7 2 10 16 -26 16 -42 0 -8 -8 -12 -8 -12 -1 0 12 -197 12 -217 0 -6 -4
-14 -3 -17 2 -7 11 -25 9 -45 -3 -10 -6 -12 -5 -7 2 4 7 1 12 -9 12 -10 0 -13
-5 -9 -12 6 -10 5 -10 -7 -1 -12 10 -18 10 -29 0 -8 -7 -11 -8 -7 -1 8 14
-120 13 -142 0 -9 -6 -12 -5 -8 1 7 12 -101 12 -120 0 -6 -4 -14 -3 -17 2 -7
11 -25 9 -45 -3 -10 -6 -12 -5 -7 2 10 16 -26 15 -43 0 -11 -10 -13 -10 -7 0
9 16 -16 16 -33 0 -11 -11 -12 -10 -6 0 8 16 -26 13 -37 -3 -5 -7 -8 -6 -8 1
0 12 -59 12 -79 0 -10 -6 -12 -5 -7 2 10 16 -26 16 -42 0 -8 -8 -12 -8 -12 -1
0 12 -197 12 -217 0 -6 -4 -14 -3 -17 2 -7 11 -25 9 -45 -3 -10 -6 -12 -5 -7
2 10 16 -26 15 -43 0 -11 -10 -13 -10 -7 0 4 7 2 12 -6 12 -8 0 -20 -6 -27
-12 -11 -10 -13 -10 -7 0 9 16 -6 16 -23 0 -10 -9 -12 -9 -7 -1 8 14 -91 12
-114 -2 -9 -5 -11 -4 -6 3 10 16 -26 15 -43 0 -11 -10 -13 -10 -7 0 9 16 -16
16 -33 0 -11 -10 -13 -10 -7 0 9 16 -16 16 -33 0 -11 -10 -13 -10 -7 0 9 16
-16 16 -33 0 -11 -10 -13 -10 -7 0 4 6 2 12 -3 12 -6 0 -11 -6 -11 -12 0 -9
-3 -9 -8 -3 -8 13 -101 13 -121 1 -10 -6 -12 -5 -7 2 10 16 -26 15 -43 0 -11
-10 -13 -10 -7 0 9 16 -16 16 -33 0 -11 -10 -13 -10 -7 0 4 6 2 12 -3 12 -6 0
-11 -6 -11 -12 0 -9 -2 -10 -8 -2 -8 13 -199 13 -219 1 -6 -4 -14 -3 -17 2 -7
11 -25 9 -45 -3 -10 -6 -12 -5 -7 2 4 7 1 12 -9 12 -10 0 -13 -5 -9 -12 6 -10
5 -10 -7 -1 -12 10 -18 10 -29 0 -8 -7 -11 -8 -7 -1 8 14 -120 13 -142 0 -9
-6 -12 -5 -8 1 7 12 -101 12 -120 0 -6 -4 -14 -3 -17 2 -7 11 -25 9 -45 -3
-10 -6 -12 -5 -7 2 10 16 -26 15 -43 0 -11 -10 -13 -10 -7 0 9 16 -16 16 -33
0 -11 -11 -12 -10 -6 0 8 16 -26 13 -37 -3 -5 -7 -8 -6 -8 1 0 12 -59 12 -79
0 -10 -6 -12 -5 -7 2 10 16 -26 16 -42 0 -8 -8 -12 -8 -12 -1 0 12 -197 12
-217 0 -6 -4 -14 -3 -17 2 -7 11 -25 9 -45 -3 -10 -6 -12 -5 -7 2 10 16 -26
15 -43 0 -11 -10 -13 -10 -7 0 4 7 2 12 -6 12 -8 0 -20 -6 -27 -12 -11 -10
-13 -10 -7 0 4 6 3 12 -1 12 -5 0 -15 -6 -22 -12 -10 -9 -12 -9 -7 -1 8 14
-91 12 -114 -2 -9 -5 -11 -4 -6 3 10 16 -26 15 -43 0 -11 -10 -13 -10 -7 0 4
7 2 12 -6 12 -8 0 -20 -6 -27 -12 -11 -10 -13 -10 -7 0 4 7 2 12 -6 12 -8 0
-20 -6 -27 -12 -11 -10 -13 -10 -7 0 4 7 2 12 -6 12 -8 0 -20 -6 -27 -12 -11
-10 -13 -10 -7 0 4 6 2 12 -3 12 -6 0 -11 -6 -11 -12 0 -9 -3 -9 -8 -3 -8 13
-101 13 -121 1 -10 -6 -12 -5 -7 2 10 16 -26 15 -43 0 -11 -10 -13 -10 -7 0 4
7 2 12 -6 12 -8 0 -20 -6 -27 -12 -11 -10 -13 -10 -7 0 4 6 2 12 -3 12 -6 0
-11 -6 -11 -12 0 -9 -2 -10 -8 -2 -8 13 -199 13 -219 1 -6 -4 -14 -3 -17 2 -7
11 -25 9 -45 -3 -10 -6 -12 -5 -7 2 4 7 1 12 -9 12 -10 0 -13 -5 -9 -12 6 -10
5 -10 -7 -1 -12 10 -18 10 -29 0 -8 -7 -11 -8 -7 -1 8 14 -120 13 -142 0 -9
-6 -12 -5 -8 1 7 12 -101 12 -120 0 -6 -4 -14 -3 -17 2 -7 11 -25 9 -45 -3
-10 -6 -12 -5 -7 2 10 16 -26 15 -43 0 -11 -10 -13 -10 -7 0 4 7 2 12 -6 12
-8 0 -20 -6 -27 -12 -11 -11 -12 -10 -6 0 8 16 -26 13 -37 -3 -5 -7 -8 -6 -8
1 0 12 -59 12 -79 0 -10 -6 -12 -5 -7 2 10 16 -26 16 -42 0 -8 -8 -12 -8 -12
-1 0 12 -197 12 -217 0 -6 -4 -14 -3 -17 2 -7 11 -25 9 -45 -3 -10 -6 -12 -5
-7 2 10 16 -26 15 -43 0 -11 -10 -13 -10 -7 0 4 7 2 12 -6 12 -8 0 -20 -6 -27
-12 -11 -10 -13 -10 -7 0 4 6 3 12 -1 12 -5 0 -15 -6 -22 -12 -10 -9 -12 -9
-7 -1 8 14 -91 12 -114 -2 -9 -5 -11 -4 -6 3 10 16 -26 15 -43 0 -11 -10 -13
-10 -7 0 4 7 2 12 -6 12 -8 0 -20 -6 -27 -12 -11 -10 -13 -10 -7 0 4 7 2 12
-6 12 -8 0 -20 -6 -27 -12 -11 -10 -13 -10 -7 0 4 7 2 12 -6 12 -8 0 -20 -6
-27 -12 -11 -10 -13 -10 -7 0 4 6 2 12 -3 12 -6 0 -11 -6 -11 -12 0 -9 -3 -9
-8 -3 -8 13 -101 13 -121 1 -10 -6 -12 -5 -7 2 10 16 -26 15 -43 0 -11 -10
-13 -10 -7 0 4 7 2 12 -6 12 -8 0 -20 -6 -27 -12 -11 -10 -13 -10 -7 0 4 6 2
12 -3 12 -6 0 -11 -6 -11 -12 0 -9 -2 -10 -8 -2 -8 13 -199 13 -219 1 -6 -4
-14 -3 -17 2 -7 11 -25 9 -45 -3 -10 -6 -12 -5 -7 2 4 7 1 12 -9 12 -10 0 -13
-5 -9 -12 6 -10 5 -10 -7 -1 -12 10 -18 10 -29 0 -8 -7 -11 -8 -7 -1 8 14
-120 13 -142 0 -9 -6 -12 -5 -8 1 7 12 -101 12 -120 0 -6 -4 -14 -3 -17 2 -7
11 -25 9 -45 -3 -10 -6 -12 -5 -7 2 10 16 -26 15 -43 0 -11 -10 -13 -10 -7 0
4 7 2 12 -6 12 -8 0 -20 -6 -27 -12 -11 -11 -12 -10 -6 0 8 16 -26 13 -37 -3
-5 -7 -8 -6 -8 1 0 12 -59 12 -79 0 -10 -6 -12 -5 -7 2 10 16 -26 16 -42 0 -8
-8 -12 -8 -12 -1 0 12 -197 12 -217 0 -6 -4 -14 -3 -17 2 -7 11 -25 9 -45 -3
-10 -6 -12 -5 -7 2 10 16 -26 15 -43 0 -11 -10 -13 -10 -7 0 4 7 2 12 -6 12
-8 0 -20 -6 -27 -12 -11 -10 -13 -10 -7 0 4 6 3 12 -1 12 -5 0 -15 -6 -22 -12
-10 -9 -12 -9 -7 -1 8 14 -91 12 -114 -2 -9 -5 -11 -4 -6 3 10 16 -26 15 -43
0 -11 -10 -13 -10 -7 0 4 7 2 12 -6 12 -8 0 -20 -6 -27 -12 -11 -10 -13 -10
-7 0 4 7 2 12 -6 12 -8 0 -20 -6 -27 -12 -11 -10 -13 -10 -7 0 4 7 2 12 -6 12
-8 0 -20 -6 -27 -12 -11 -10 -13 -10 -7 0 4 6 2 12 -3 12 -6 0 -11 -6 -11 -12
0 -9 -3 -9 -8 -3 -8 13 -101 13 -121 1 -10 -6 -12 -5 -7 2 10 16 -26 15 -43 0
-11 -10 -13 -10 -7 0 4 7 2 12 -6 12 -8 0 -20 -6 -27 -12 -11 -10 -13 -10 -7
0 4 7 2 12 -6 12 -8 0 -20 -6 -27 -12 -11 -10 -13 -10 -7 0 4 7 2 12 -6 12 -8
0 -20 -6 -27 -12 -11 -10 -13 -10 -7 0 4 6 3 12 -1 12 -5 0 -15 -6 -22 -12
-10 -9 -12 -9 -7 -1 8 14 -91 12 -114 -2 -9 -5 -11 -4 -6 3 10 16 -26 15 -43
0 -11 -10 -13 -10 -7 0 4 7 2 12 -6 12 -8 0 -20 -6 -27 -12 -11 -10 -13 -10
-7 0 4 7 2 12 -6 12 -8 0 -20 -6 -27 -12 -11 -10 -13 -10 -7 0 4 7 2 12 -6 12
-8 0 -20 -6 -27 -12 -11 -10 -13 -10 -7 0 4 6 2 12 -3 12 -6 0 -11 -6 -11 -12
0 -9 -3 -9 -8 -3 -8 13 -101 13 -121 1 -10 -6 -12 -5 -7 2 10 16 -26 15 -43 0
-11 -10 -13 -10 -7 0 4 7 2 12 -6 12 -8 0 -20 -6 -27 -12 -11 -10 -13 -10 -7
0 4 6 2 12 -3 12 -6 0 -11 -6 -11 -12 0 -9 -2 -10 -8 -2 -8 13 -199 13 -219 1
-6 -4 -14 -3 -17 2 -7 11 -25 9 -45 -3 -10 -6 -12 -5 -7 2 4 7 1 12 -9 12 -10
0 -13 -5 -9 -12 6 -10 5 -10 -7 -1 -12 10 -18 10 -29 0 -8 -7 -11 -8 -7 -1 8
14 -120 13 -142 0 -9 -6 -12 -5 -8 1 7 12 -101 12 -120 0 -6 -4 -14 -3 -17 2
-7 11 -25 9 -45 -3 -10 -6 -12 -5 -7 2 10 16 -26 15 -43 0 -11 -10 -13 -10 -7
0 4 7 2 12 -6 12 -8 0 -20 -6 -27 -12 -11 -11 -12 -10 -6 0 8 16 -26 13 -37
-3 -5 -7 -8 -6 -8 1 0 12 -59 12 -79 0 -10 -6 -12 -5 -7 2 10 16 -26 16 -42 0
-8 -8 -12 -8 -12 -1 0 12 -197 12 -217 0 -6 -4 -14 -3 -17 2 -7 11 -25 9 -45
-3 -10 -6 -12 -5 -7 2 10 16 -26 15 -43 0 -11 -10 -13 -10 -7 0 4 7 2 12 -6
12 -8 0 -20 -6 -27 -12 -11 -10 -13 -10 -7 0 4 6 3 12 -1 12 -5 0 -15 -6 -22
-12 -10 -9 -12 -9 -7 -1 8 14 -91 12 -114 -2 -9 -5 -11 -4 -6 3 10 16 -26 15
-43 0 -11 -10 -13 -10 -7 0 4 7 2 12 -6 12 -8 0 -20 -6 -27 -12 -11 -10 -13
-10 -7 0 4 7 2 12 -6 12 -8 0 -20 -6 -27 -12 -11 -10 -13 -10 -7 0 4 7 2 12
-6 12 -8 0 -20 -6 -27 -12 -11 -10 -13 -10 -7 0 4 6 2 12 -3 12 -6 0 -11 -6
-11 -12 0 -9 -3 -9 -8 -3 -8 13 -101 13 -121 1 -10 -6 -12 -5 -7 2 10 16 -26
15 -43 0 -11 -10 -13 -10 -7 0 4 7 2 12 -6 12 -8 0 -20 -6 -27 -12 -11 -10
-13 -10 -7 0 4 7 2 12 -6 12 -8 0 -20 -6 -27 -12 -11 -10 -13 -10 -7 0 4 7 2
12 -6 12 -8 0 -20 -6 -27 -12 -11 -10 -13 -10 -7 0 4 6 3 12 -1 12 -5 0 -15
-6 -22 -12 -10 -9 -12 -9 -7 -1 8 14 -91 12 -114 -2 -9 -5 -11 -4 -6 3 10 16
-26 15 -43 0 -11 -10 -13 -10 -7 0 4 7 2 12 -6 12 -8 0 -20 -6 -27 -12 -11
-10 -13 -10 -7 0 4 7 2 12 -6 12 -8 0 -20 -6 -27 -12 -11 -10 -13 -10 -7 0 4
7 2 12 -6 12 -8 0 -20 -6 -27 -12 -11 -10 -13 -10 -7 0 4 6 2 12 -3 12 -6 0
-11 -6 -11 -12 0 -9 -3 -9 -8 -3 -8 13 -101 13 -121 1 -10 -6 -12 -5 -7 2 10
16 -26 15 -43 0 -11 -10 -13 -10 -7 0 4 7 2 12 -6 12 -8 0 -20 -6 -27 -12 -11
-10 -13 -10 -7 0 4 6 2 12 -3 12 -6 0 -11 -6 -11 -12 0 -9 -2 -10 -8 -2 -8 13
-199 13 -219 1 -6 -4 -14 -3 -17 2 -7 11 -25 9 -45 -3 -10 -6 -12 -5 -7 2 4 7
1 12 -9 12 -10 0 -13 -5 -9 -12 6 -10 5 -10 -7 -1 -12 10 -18 10 -29 0 -8 -7
-11 -8 -7 -1 8 14 -120 13 -142 0 -9 -6 -12 -5 -8 1 7 12 -101 12 -120 0 -6
-4 -14 -3 -17 2 -7 11 -25 9 -45 -3 -10 -6 -12 -5 -7 2 10 16 -26 15 -43 0
-11 -10 -13 -10 -7 0 4 7 2 12 -6 12 -8 0 -20 -6 -27 -12 -11 -11 -12 -10 -6
0 8 16 -26 13 -37 -3 -5 -7 -8 -6 -8 1 0 12 -59 12 -79 0 -10 -6 -12 -5 -7 2
10 16 -26 16 -42 0 -8 -8 -12 -8 -12 -1 0 12 -197 12 -217 0 -6 -4 -14 -3 -17
2 -7 11 -25 9 -45 -3 -10 -6 -12 -5 -7 2 10 16 -26 15 -43 0 -11 -10 -13 -10
-7 0 4 7 2 12 -6 12 -8 0 -20 -6 -27 -12 -11 -10 -13 -10 -7 0 4 6 3 12 -1 12
-5 0 -15 -6 -22 -12 -10 -9 -12 -9 -7 -1 8 14 -91 12 -114 -2 -9 -5 -11 -4 -6
3 10 16 -26 15 -43 0 -11 -10 -13 -10 -7 0 4 7 2 12 -6 12 -8 0 -20 -6 -27
-12 -11 -10 -13 -10 -7 0 4 7 2 12 -6 12 -8 0 -20 -6 -27 -12 -11 -10 -13 -10
-7 0 4 7 2 12 -6 12 -8 0 -20 -6 -27 -12 -11 -10 -13 -10 -7 0 4 6 2 12 -3 12
-6 0 -11 -6 -11 -12 0 -9 -3 -9 -8 -3 -8 13 -101 13 -121 1 -10 -6 -12 -5 -7
2 10 16 -26 15 -43 0 -11 -10 -13 -10 -7 0 4 7 2 12 -6 12 -8 0 -20 -6 -27
-12 -11 -10 -13 -10 -7 0 4 7 2 12 -6 12 -8 0 -20 -6 -27 -12 -11 -10 -13 -10
-7 0 4 7 2 12 -6 12 -8 0 -20 -6 -27 -12 -11 -10 -13 -10 -7 0 4 6 3 12 -1 12
-5 0 -15 -6 -22 -12 -10 -9 -12 -9 -7 -1 8 14 -91 12 -114 -2 -9 -5 -11 -4 -6
3 10 16 -26 15 -43 0 -11 -10 -13 -10 -7 0 4 7 2 12 -6 12 -8 0 -20 -6 -27
-12 -11 -10 -13 -10 -7 0 4 7 2 12 -6 12 -8 0 -20 -6 -27 -12 -11 -10 -13 -10
-7 0 4 7 2 12 -6 12 -8 0 -20 -6 -27 -12 -11 -10 -13 -10 -7 0 4 6 2 12 -3 12
-6 0 -11 -6 -11 -12 0 -9 -3 -9 -8 -3 -8 13 -101 13 -121 1 -10 -6 -12 -5 -7
2 10 16 -26 15 -43 0 -11 -10 -13 -10 -7 0 4 7 2 12 -6 12 -8 0 -20 -6 -27
-12 -11 -10 -13 -10 -7 0 4 6 2 12 -3 12 -6 0 -11 -6 -11 -12 0 -9 -2 -10 -8
-2 -8 13 -199 13 -219 1 -6 -4 -14 -3 -17 2 -7 11 -25 9 -45 -3 -10 -6 -12 -5
-7 2 4 7 1 12 -9 12 -10 0 -13 -5 -9 -12 6 -10 5 -10 -7 -1 -12 10 -18 10 -29
0 -8 -7 -11 -8 -7 -1 8 14 -120 13 -142 0 -9 -6 -12 -5 -8 1 7 12 -101 12
-120 0 -6 -4 -14 -3 -17 2 -7 11 -25 9 -45 -3 -10 -6 -12 -5 -7 2 10 16 -26
15 -43 0 -11 -10 -13 -10 -7 0 4 7 2 12 -6 12 -8 0 -20 -6 -27 -12 -11 -11
-12 -10 -6 0 8 16 -26 13 -37 -3 -5 -7 -8 -6 -8 1 0 12 -59 12 -79 0 -10 -6
-12 -5 -7 2 10 16 -26 16 -42 0 -8 -8 -12 -8 -12 -1 0 12 -197 12 -217 0 -6
-4 -14 -3 -17 2 -7 11 -25 9 -45 -3 -10 -6 -12 -5 -7 2 10 16 -26 15 -43 0
-11 -10 -13 -10 -7 0 4 7 2 12 -6 12 -8 0 -20 -6 -27 -12 -11 -10 -13 -10 -7
0 4 6 3 12 -1 12 -5 0 -15 -6 -22 -12 -10 -9 -12 -9 -7 -1 8 14 -91 12 -114
-2 -9 -5 -11 -4 -6 3 10 16 -26 15 -43 0 -11 -10 -13 -10 -7 0 4 7 2 12 -6 12
-8 0 -20 -6 -27 -12 -11 -10 -13 -10 -7 0 4 7 2 12 -6 12 -8 0 -20 -6 -27 -12
-11 -10 -13 -10 -7 0 4 7 2 12 -6 12 -8 0 -20 -6 -27 -12 -11 -10 -13 -10 -7
0 4 6 2 12 -3 12 -6 0 -11 -6 -11 -12 0 -9 -3 -9 -8 -3 -8 13 -101 13 -121 1
-10 -6 -12 -5 -7 2 4 7 1 12 -9 12 -10 0 -13 -5 -9 -12 5 -7 3 -8 -7 -2 -21
13 -66 11 -66 -3z"/>
</g>
</svg>
